<?xml version="1.0" encoding="utf-8"?>
<!-- Generator: Adobe Illustrator 22.0.1, SVG Export Plug-In . SVG Version: 6.00 Build 0)  -->
<svg version="1.1" id="Layer_1" xmlns="http://www.w3.org/2000/svg" xmlns:xlink="http://www.w3.org/1999/xlink" x="0px" y="0px"
	 viewBox="0 0 600 400" style="enable-background:new 0 0 600 400;" xml:space="preserve">
<style type="text/css">
	.st0{fill:#FF0000;stroke:#FFFFFF;stroke-linejoin:round;}
	.st1{fill:#431BED;stroke:#FFFFFF;stroke-linejoin:round;}
	.st2{fill:#DDDF00;stroke:#FFFFFF;stroke-linejoin:round;}
	.st3{fill:#24CBE5;stroke:#FFFFFF;stroke-linejoin:round;}
	.st4{fill:#64E572;stroke:#FFFFFF;stroke-linejoin:round;}
	.st5{fill:#FF9655;stroke:#FFFFFF;stroke-linejoin:round;}
	.st6{fill:#FFF263;stroke:#FFFFFF;stroke-linejoin:round;}
	.st7{fill:#6AF9C4;stroke:#FFFFFF;stroke-linejoin:round;}
	.st8{fill:#D52FD8;stroke:#FFFFFF;stroke-linejoin:round;}
	.st9{fill:#0D233A;stroke:#FFFFFF;stroke-linejoin:round;}
	.st10{font-family:'ArialMT';}
	.st11{font-size:10px;}
	.st12{fill:none;stroke:#FF0000;}
	.st13{fill:none;stroke:#431BED;}
	.st14{fill:none;stroke:#DDDF00;}
	.st15{fill:none;stroke:#24CBE5;}
	.st16{fill:none;stroke:#64E572;}
	.st17{fill:none;stroke:#FF9655;}
	.st18{fill:none;stroke:#FFF263;}
	.st19{fill:none;stroke:#6AF9C4;}
	.st20{fill:none;stroke:#D52FD8;}
	.st21{fill:none;stroke:#0D233A;}
	.st22{font-family:'Arial-BoldMT';}
	.st23{fill:#333333;}
	.st24{font-family:'LucidaBright';}
	.st25{font-size:9px;}
	.st26{fill:#FF0000;}
	.st27{fill:#431BED;}
	.st28{fill:#DDDF00;}
	.st29{fill:#24CBE5;}
	.st30{fill:#64E572;}
	.st31{fill:#FF9655;}
	.st32{fill:#FFF263;}
	.st33{fill:#6AF9C4;}
	.st34{fill:#D52FD8;}
	.st35{fill:#0D233A;}
	.st36{display:none;}
	.st37{display:inline;fill:none;stroke:#000000;stroke-width:5;stroke-opacity:5.000000e-02;}
	.st38{display:inline;fill:none;stroke:#000000;stroke-width:3;stroke-opacity:0.1;}
	.st39{display:inline;fill:none;stroke:#000000;stroke-opacity:0.15;}
	.st40{display:inline;fill:#F9F9F9;fill-opacity:0.85;}
</style>
<desc>Created with Highcharts 4.2.7</desc>
<g>
	<g transform="translate(10,36) scale(1 1)">
		<path class="st0" d="M300,41.5c58.8,0,106.5,47.7,106.5,106.5c0,58.8-47.7,106.5-106.5,106.5S193.5,206.8,193.5,148
			c0-37.8,20-72.7,52.5-91.8l54,91.8l0,0L300,41.5z"/>
		<path class="st1" d="M246.1,56.1c2.9-1.7,5.9-3.3,9-4.7L300,148l0,0L246.1,56.1z"/>
		<path class="st2" d="M255.2,51.4c2.8-1.3,5.7-2.5,8.7-3.6L300,148l0,0L255.2,51.4z"/>
		<path class="st3" d="M263.9,47.8c2.9-1,5.9-2,8.8-2.8L300,148l0,0L263.9,47.8z"/>
		<path class="st4" d="M272.9,45c2.2-0.6,4.4-1.1,6.6-1.5L300,148l0,0L272.9,45z"/>
		<path class="st5" d="M279.6,43.5c1.7-0.3,3.4-0.6,5.1-0.9L300,148l0,0L279.6,43.5z"/>
		<path class="st6" d="M284.9,42.6c1.6-0.2,3.2-0.4,4.8-0.6L300,148l0,0L284.9,42.6z"/>
		<path class="st7" d="M289.8,42c1.2-0.1,2.5-0.2,3.7-0.3L300,148l0,0L289.8,42z"/>
		<path class="st8" d="M293.6,41.7c1.2-0.1,2.4-0.1,3.6-0.2L300,148l0,0L293.6,41.7z"/>
		<path class="st9" d="M297.3,41.5c0.9,0,1.7,0,2.6,0L300,148l0,0L297.3,41.5z"/>
	</g>
	<g transform="translate(10,36) scale(1 1)">
	</g>
</g>
<text transform="matrix(1 0 0 1 159.9365 22)" class="st10 st11">https://newsroom.fb.com/news/2018/04/restricting-data-access/</text>
<g transform="translate(10,36) scale(1 1)">
	<path class="st12" d="M340.3,279.2c-5,0-7.1-7.7-10-18.3l-2.9-10.6"/>
	<path class="st13" d="M161.7,179c5,0,78.2-145.3,83.3-135.6l5.1,9.7"/>
	<path class="st14" d="M158.4,158c5,0,92.3-129.4,96.5-119.2L259,49"/>
	<path class="st15" d="M158.4,137c5,0,103-112.2,106.3-101.7l3.3,10.5"/>
	<path class="st16" d="M161.7,116c5,0,109.2-93.8,111.6-83l2.5,10.7"/>
	<path class="st17" d="M168.5,95c5,0,109.6-74.2,111.4-63.4l1.8,10.8"/>
	<path class="st18" d="M179.5,74c5,0,104.7-54.1,106.1-43.2l1.3,10.9"/>
	<path class="st19" d="M196,53c5,0,93.5-33.6,94.3-22.6l0.9,11"/>
	<path class="st20" d="M221.8,32c5,0,72.3-12.9,72.7-1.9l0.5,11"/>
	<path class="st21" d="M292.8,11c5,0,5.1,8,5.2,19l0.1,11"/>
	<g transform="translate(345,269)">
		<text transform="matrix(1 0 0 1 5 15)" class="st22 st11">United States : 70632350</text>
	</g>
	<g transform="translate(46,169)">
		<text transform="matrix(1 0 0 1 5 15)" class="st22 st11">Philippines : 1175870</text>
	</g>
	<g transform="translate(48,148)">
		<text transform="matrix(1 0 0 1 5 15)" class="st22 st11">Indonesia : 1096666</text>
	</g>
	<g transform="translate(18,127)">
		<text transform="matrix(1 0 0 1 5 15)" class="st22 st11">United Kingdom : 1079031</text>
	</g>
	<g transform="translate(70,106)">
		<text transform="matrix(1 0 0 1 5 15)" class="st22 st11">Mexico : 789880</text>
	</g>
	<g transform="translate(75,85)">
		<text transform="matrix(1 0 0 1 5 15)" class="st22 st11">Canada : 622161</text>
	</g>
	<g transform="translate(98,64)">
		<text transform="matrix(1 0 0 1 5 15)" class="st22 st11">India : 562455</text>
	</g>
	<g transform="translate(112,43)">
		<text transform="matrix(1 0 0 1 5 15)" class="st22 st11">Brazil : 443117</text>
	</g>
	<g transform="translate(124,22)">
		<text transform="matrix(1 0 0 1 5 15)" class="st22 st11">Vietnam : 427446</text>
	</g>
	<g transform="translate(192,1)">
		<text transform="matrix(1 0 0 1 5 15)" class="st22 st11">Australia : 311127</text>
	</g>
</g>
<g transform="translate(33,338)">
	<g>
		<g>
			<g transform="translate(8,3)">
				<text transform="matrix(1 0 0 1 21 15)" class="st23 st24 st25">United States</text>
				<rect y="4" class="st26" width="16" height="12"/>
			</g>
			<g transform="translate(125.609375,3)">
				<text transform="matrix(1 0 0 1 21 15)" class="st23 st24 st25">Philippines</text>
				<rect y="4" class="st27" width="16" height="12"/>
			</g>
			<g transform="translate(229.90625,3)">
				<text transform="matrix(1 0 0 1 21 15)" class="st23 st24 st25">Indonesia</text>
				<rect y="4" class="st28" width="16" height="12"/>
			</g>
			<g transform="translate(327.453125,3)">
				<text transform="matrix(1 0 0 1 21 15)" class="st23 st24 st25">United Kingdom</text>
				<rect y="4" class="st29" width="16" height="12"/>
			</g>
			<g transform="translate(462.5625,3)">
				<text transform="matrix(1 0 0 1 21 15)" class="st23 st24 st25">Mexico</text>
				<rect y="4" class="st30" width="16" height="12"/>
			</g>
			<g transform="translate(8,21)">
				<text transform="matrix(1 0 0 1 21 15)" class="st23 st24 st25">Canada</text>
				<rect y="4" class="st31" width="16" height="12"/>
			</g>
			<g transform="translate(92.546875,21)">
				<text transform="matrix(1 0 0 1 21 15)" class="st23 st24 st25">India</text>
				<rect y="4" class="st32" width="16" height="12"/>
			</g>
			<g transform="translate(162.46875,21)">
				<text transform="matrix(1 0 0 1 21 15)" class="st23 st24 st25">Brazil</text>
				<rect y="4" class="st33" width="16" height="12"/>
			</g>
			<g transform="translate(235.71875,21)">
				<text transform="matrix(1 0 0 1 21 15)" class="st23 st24 st25">Vietnam</text>
				<rect y="4" class="st34" width="16" height="12"/>
			</g>
			<g transform="translate(325.484375,21)">
				<text transform="matrix(1 0 0 1 21 15)" class="st23 st24 st25">Australia</text>
				<rect y="4" class="st35" width="16" height="12"/>
			</g>
		</g>
	</g>
</g>
<g transform="translate(0,0)" class="st36">
	<path class="st37" d="M4.5,1.5h10c3,0,3,0,3,3v10c0,3,0,3-3,3h-10c-3,0-3,0-3-3v-10C1.5,1.5,1.5,1.5,4.5,1.5"/>
	<path class="st38" d="M4.5,1.5h10c3,0,3,0,3,3v10c0,3,0,3-3,3h-10c-3,0-3,0-3-3v-10C1.5,1.5,1.5,1.5,4.5,1.5"/>
	<path class="st39" d="M4.5,1.5h10c3,0,3,0,3,3v10c0,3,0,3-3,3h-10c-3,0-3,0-3-3v-10C1.5,1.5,1.5,1.5,4.5,1.5"/>
	<path class="st40" d="M3.5,0.5h10c3,0,3,0,3,3v10c0,3,0,3-3,3h-10c-3,0-3,0-3-3v-10C0.5,0.5,0.5,0.5,3.5,0.5"/>
</g>
</svg>
